<?xml version="1.0" encoding="UTF-8" ?>
<svg version="1.1" width="32" height="32" xmlns="http://www.w3.org/2000/svg" shape-rendering="crispEdges">
<rect x="6" y="2" width="2" height="2" fill="#000000" />
<rect x="22" y="2" width="2" height="2" fill="#000000" />
<rect x="4" y="4" width="2" height="2" fill="#000000" />
<rect x="8" y="4" width="2" height="2" fill="#B5B2B2" />
<rect x="24" y="4" width="2" height="2" fill="#000000" />
<rect x="4" y="6" width="2" height="2" fill="#000000" />
<rect x="6" y="6" width="2" height="2" fill="#B5B2B2" />
<rect x="24" y="6" width="2" height="2" fill="#000000" />
<rect x="4" y="8" width="2" height="2" fill="#000000" />
<rect x="6" y="8" width="2" height="2" fill="#B5B2B2" />
<rect x="24" y="8" width="2" height="2" fill="#000000" />
<rect x="26" y="8" width="2" height="2" fill="#B5B2B2" />
<rect x="4" y="10" width="2" height="2" fill="#000000" />
<rect x="6" y="10" width="2" height="2" fill="#B5B2B2" />
<rect x="24" y="10" width="2" height="2" fill="#000000" />
<rect x="26" y="10" width="2" height="2" fill="#B5B2B2" />
<rect x="4" y="12" width="2" height="2" fill="#000000" />
<rect x="6" y="12" width="2" height="2" fill="#B5B2B2" />
<rect x="24" y="12" width="2" height="2" fill="#000000" />
<rect x="26" y="12" width="2" height="2" fill="#B5B2B2" />
<rect x="2" y="14" width="2" height="2" fill="#000000" />
<rect x="6" y="14" width="2" height="2" fill="#B5B2B2" />
<rect x="26" y="14" width="2" height="2" fill="#000000" />
<rect x="4" y="16" width="2" height="2" fill="#000000" />
<rect x="24" y="16" width="2" height="2" fill="#000000" />
<rect x="28" y="16" width="2" height="2" fill="#B5B2B2" />
<rect x="4" y="18" width="2" height="2" fill="#000000" />
<rect x="6" y="18" width="2" height="2" fill="#B5B2B2" />
<rect x="24" y="18" width="2" height="2" fill="#000000" />
<rect x="26" y="18" width="2" height="2" fill="#B5B2B2" />
<rect x="4" y="20" width="2" height="2" fill="#000000" />
<rect x="6" y="20" width="2" height="2" fill="#B5B2B2" />
<rect x="24" y="20" width="2" height="2" fill="#000000" />
<rect x="26" y="20" width="2" height="2" fill="#B5B2B2" />
<rect x="4" y="22" width="2" height="2" fill="#000000" />
<rect x="6" y="22" width="2" height="2" fill="#B5B2B2" />
<rect x="24" y="22" width="2" height="2" fill="#000000" />
<rect x="26" y="22" width="2" height="2" fill="#B5B2B2" />
<rect x="4" y="24" width="2" height="2" fill="#000000" />
<rect x="6" y="24" width="2" height="2" fill="#B5B2B2" />
<rect x="24" y="24" width="2" height="2" fill="#000000" />
<rect x="26" y="24" width="2" height="2" fill="#B5B2B2" />
<rect x="6" y="26" width="2" height="2" fill="#000000" />
<rect x="22" y="26" width="2" height="2" fill="#000000" />
<rect x="26" y="26" width="2" height="2" fill="#B5B2B2" />
<rect x="8" y="28" width="2" height="2" fill="#B5B2B2" />
<rect x="24" y="28" width="2" height="2" fill="#B5B2B2" />
</svg>